# xmcd
#
# Track frame offsets:
#	150
#	11649
#	23867
#	35080
#	48765
#	62901
#	75777
#	87717
#	100601
#	114614
#	127177
#	140188
#	153446
#	164951
#	176281
#	191612
#	204283
#	214234
#	223795
#	240307
#	255372
#	271228
#	286011
#	296609
#	308627
#
# Disc length: 4264 seconds
#
# Revision: 0
# Processed by: cddbd v1.4PL0 Copyright (c) Steve Scherf et al.
# Submitted via: EasyCDDAExtractor 4.6.9.1
#
DISCID=6810a619
DTITLE=Bill Monroe - The Essential Bill Monroe and The Monroe Brothers
DYEAR=1900
DGENRE=Bluegrass
TTITLE0=Mule Skinner Blues
TTITLE1=No Letter In The Mail
TTITLE2=Cryin' Holy Unto My Lord
TTITLE3=Six White Horses
TTITLE4=Doghouse Blues
TTITLE5=I Wonder If You Feel The Way I do
TTITLE6=Katy Hill
TTITLE7=Tennesse Blues
TTITLE8=Shake My Mothers Hand For Me
TTITLE9=Where You There?
TTITLE10=Blue Yodel #7
TTITLE11=The Coupon Song
TTITLE12=Orange Blossom Special
TTITLE13=Honky Tonk Swing
TTITLE14=In The Pines
TTITLE15=Back Up And Push
TTITLE16=The Great Speckeled Bird
TTITLE17=No Home, No Place To Pillow My Head
TTITLE18=New River Train
TTITLE19=Once I Had A Darling Mother
TTITLE20=On The Banks Of The Ohio
TTITLE21=Weeping Willow Tree
TTITLE22=Just Of Song Old Kentucky
TTITLE23=Don't Forget Me
TTITLE24=I am Thinking Tonight Of The Old Folks 
EXTD=
EXTT0=
EXTT1=
EXTT2=
EXTT3=
EXTT4=
EXTT5=
EXTT6=
EXTT7=
EXTT8=
EXTT9=
EXTT10=
EXTT11=
EXTT12=
EXTT13=
EXTT14=
EXTT15=
EXTT16=
EXTT17=
EXTT18=
EXTT19=
EXTT20=
EXTT21=
EXTT22=
EXTT23=
EXTT24=
PLAYORDER=
